<svg width="24" height="24" viewBox="0 0 24 24" fill="none" xmlns="http://www.w3.org/2000/svg">
<path d="M17.959 20.0374C16.3669 21.6146 14.2531 22.4803 11.9999 22.4803C9.74671 22.4803 7.63286 21.6146 6.0408 20.0374C4.45467 18.4631 3.58008 16.3759 3.58008 14.1554C3.58008 12.8657 3.87062 11.6294 4.44281 10.4791C5.00018 9.35548 5.8303 8.35044 6.83831 7.57665C7.48118 7.08508 8.06426 6.51991 8.57564 5.89268C9.31682 4.98844 9.89791 3.98044 10.3011 2.89831C10.4665 2.45194 10.5867 1.99009 10.6598 1.51971C11.3743 2.17788 11.9732 2.97243 12.4743 3.90335C13.4645 5.75927 13.921 7.41062 13.8321 8.8159C13.8108 9.14687 13.8649 9.47835 13.9902 9.78543C14.1155 10.0925 14.3088 10.3672 14.5555 10.5888C14.7693 10.7819 15.0194 10.9307 15.2911 11.0264C15.5629 11.122 15.851 11.1628 16.1387 11.1462C16.7227 11.1165 17.2593 10.8586 17.6507 10.4228C18.045 9.98104 18.3859 9.5304 18.6705 9.07087C19.0856 9.60155 19.4325 10.1797 19.7082 10.8023C20.1796 11.8636 20.4197 12.9932 20.4197 14.1554C20.4197 16.3759 19.5451 18.4661 17.959 20.0374Z" stroke="#292A2E" stroke-width="1.5" stroke-linejoin="round"/>
<path d="M13.6454 18.309C13.0064 18.942 12.1581 19.2895 11.2538 19.2895C10.3494 19.2895 9.50107 18.942 8.86211 18.309C8.22552 17.6772 7.87451 16.8395 7.87451 15.9483C7.87451 15.4307 7.99112 14.9345 8.22077 14.4729C8.44446 14.0219 8.77763 13.6185 9.18218 13.308C9.44019 13.1107 9.67421 12.8839 9.87945 12.6321C10.1769 12.2692 10.4101 11.8647 10.572 11.4304C10.6383 11.2512 10.6866 11.0659 10.7159 10.8771C11.0027 11.1412 11.243 11.4601 11.4441 11.8337C11.8416 12.5786 12.0248 13.2414 11.9891 13.8054C11.9806 13.9382 12.0023 14.0712 12.0525 14.1945C12.1028 14.3177 12.1804 14.4279 12.2794 14.5169C12.3652 14.5944 12.4656 14.6541 12.5747 14.6925C12.6837 14.7309 12.7994 14.7473 12.9148 14.7406C13.1492 14.7287 13.3646 14.6252 13.5217 14.4503C13.6799 14.273 13.8167 14.0921 13.931 13.9077C14.0976 14.1207 14.2368 14.3527 14.3474 14.6026C14.5366 15.0285 14.633 15.4819 14.633 15.9483C14.633 16.8395 14.282 17.6784 13.6454 18.309Z" stroke="#292A2E" stroke-width="1.5" stroke-linejoin="round"/>
</svg>
