<svg width="256" height="256" viewBox="0 0 256 256" fill="none" xmlns="http://www.w3.org/2000/svg">
<g id="chef 1">
<g id="Group">
<g id="Group_2">
<g id="Group_3">
<path id="Vector" d="M120.4 10.8C112.2 13 105.7 17.8 101 25.2C100.6 25.9 100.2 25.9 97.7 25.3C93.7 24.3 87.8 24.4 83.5 25.5C74.9 27.7 67.5 33.6 63.8 41.2C62.7 43.4 61.5 46.5 61.1 48.1C60.2 51.7 60.2 59.2 61.1 62.9C62.1 67 65.2001 72.9 67.8001 75.9C70.1001 78.5 74.7 82 77.7 83.4L79.5 84.2L79.6 106.9C79.7 129.1 79.7001 129.6 80.8001 131.5C82.0001 133.7 84.3 136 86.7 137.3C88.3 138.2 90.3001 138.2 128.1 138.2H167.8L170.3 136.8C173.1 135.3 175.2 132.7 176.1 129.7C176.4 128.4 176.6 120.5 176.6 106.1V84.4L179.7 82.7C186.1 79.3 191.8 72.5 194.2 65.7C200 48.4 190.1 30.1 172.5 25.6C168.1 24.5 162.3 24.4 158.3 25.4C155.7 26 155.4 26 155 25.3C150.7 18.4 145.2 14 138 11.5C133 9.79997 125.3 9.49997 120.4 10.8ZM136.5 18.4C142.5 20.7 146.9 24.8 149.9 31.1L151.8 35L155 33.7C159.7 31.7 163.8 31.1 167.9 31.7C174.3 32.7 178 34.7 182.4 39.3C191.1 48.4 191.1 62.4 182.4 71.8C179.4 75 176.9 76.7 172.5 78.3L169.6 79.3L169.5 94.1L169.4 108.9H128H86.6L86.5 94.1L86.4001 79.3L83.5 78.2C66.8 72.2 61.9001 52 73.9001 39.1C77.6001 35.1 82.8 32.5 88.2 31.7C93.4 31 96.9 31.7 104.2 34.9C104.5 35 104.8 34.9 104.8 34.6C104.8 33.6 107.7 28 109.4 25.7C111.6 22.8 116 19.6 119.5 18.3C124.4 16.5 131.4 16.5 136.5 18.4Z" fill="#797C8A" fill-opacity="0.1"/>
<path id="Vector_2" d="M89.9 145.5C88.8 145.7 87 146.5 85.9 147.1C84.9 147.7 79.0999 153.1 73.0999 159.1C60.9999 171.3 60.2 172.4 60.2 177.8C60.2 183.5 60.7 184.2 75.5 198.8C90.2 213.4 90.6 213.7 96.5 213.7C100.4 213.7 103.3 212.4 106.5 209.4L108.9 207.2L111.9 210.5C113.6 212.3 115 214 115 214.3C115 214.6 110.6 218.8 105.3 223.5C99.9 228.3 95.4 232.5 95.3 232.9C94.3 235.4 95.2999 237.5 99.5999 241.7C104.2 246.2 105.8 246.8 108.4 245.1C109.1 244.7 113.3 240.3 117.6 235.3C121.9 230.4 125.7 226.4 125.9 226.4C126.1 226.4 130 230.5 134.6 235.5C139.7 241.1 143.5 244.8 144.4 245.3C147.9 246.7 150.6 245.9 155 241.8C160.5 236.8 162 232.7 159.9 228.9C159.4 228.1 154.7 223.5 149.4 218.7L139.7 210L144.4 205.3L149 200.6L151.2 201.7C155.2 203.7 159 204.5 164.8 204.2C170.5 204 174.7 202.8 179.5 200C187 195.6 192.7 188.1 194.8 179.6C195.8 175.6 195.8 168.8 194.8 164.8C191.7 153 181.4 145.1 168.9 145.1C163.2 145.1 160.3 145.8 154.6 148.5C150.8 150.3 149.5 151.3 146 154.8C142.7 158.1 141.5 159.7 139.9 162.9C137.3 168.1 136.3 172.1 136.3 177.4C136.3 182 137.2 185.8 139.1 189.6L140.2 191.8L135.2 196.7L130.3 201.7L126.3 197.7L122.3 193.7L124.4 191.4C127.4 188.1 128.9 184.9 128.9 181C128.9 175.4 127.9 174 113.3 159.6C102 148.4 100.3 146.8 98.1999 146.2C94.9999 145.3 92.4 145.1 89.9 145.5ZM96 152.9C96.7 153.3 102.8 159.1 109.5 165.9C122.4 178.8 122.7 179.3 122 182.8C121.8 183.9 120.3 185.8 117 189.1L112.3 193.9L118.6 200.1C122.1 203.5 131.4 212.1 139.3 219.2C147.2 226.3 153.7 232.4 153.7 232.7C153.7 233.4 148.4 238.7 147.7 238.7C147.4 238.7 141.6 232.6 134.9 225C128.2 217.4 119.6 208.1 115.8 204.2L108.9 197.1L104.6 201.4C102.2 203.7 99.7999 205.9 99.1999 206.2C98.5999 206.5 97.2 206.7 95.9 206.7H93.5999L80.5999 193.7C66.6999 179.9 66.5 179.5 67.3 175.9C67.7 174.5 87.0999 154.5 89.6999 152.9C91.3999 152.1 94.2 151.9 96 152.9Z" fill="#797C8A" fill-opacity="0.1"/>
<path id="Vector_3" d="M91.2 158.3C90 159.5 89 160.8 89 161C89 161.3 94 166.5 100.2 172.7L111.4 183.9L113.9 181.4L116.4 178.9L105 167.5L93.5 156L91.2 158.3Z" fill="#797C8A" fill-opacity="0.1"/>
<path id="Vector_4" d="M82.0999 167.3L79.8999 169.5L91.2999 181L102.7 192.4L105.1 190L107.5 187.6L96.1999 176.3C89.9999 170.1 84.7999 165 84.5999 165C84.4999 165.1 83.3999 166.1 82.0999 167.3Z" fill="#797C8A" fill-opacity="0.1"/>
<path id="Vector_5" d="M73.4999 176L71.0999 178.4L82.4999 189.8L93.8999 201.2L96.2999 198.8L98.6999 196.4L87.2999 185L75.8999 173.6L73.4999 176Z" fill="#797C8A" fill-opacity="0.1"/>
</g>
</g>
</g>
</g>
</svg>
