<svg width="24" height="24" viewBox="0 0 24 24" fill="none" xmlns="http://www.w3.org/2000/svg">
<path d="M17.0986 6.98912C13.4542 3.49241 10.5416 3.25523 9.87584 3.2504L3.07856 19.7951C2.94848 20.1117 3.07904 20.3915 3.24488 20.5481C3.41072 20.7047 3.70472 20.8256 4.03208 20.6957L21.0334 13.962C21.0186 13.317 20.7337 10.4769 17.0986 6.98912Z" stroke="#292A2E" stroke-width="1.5" stroke-linejoin="round"/>
<path d="M17.1786 15.0984C17.0737 14.7302 16.8496 14.3882 16.6297 14.055C16.4185 13.7347 16.2188 13.4323 16.1339 13.1265C16.0508 12.8286 16.0669 12.476 16.084 12.103C16.1087 11.5598 16.1341 10.9981 15.8504 10.5274C15.579 10.0768 15.0707 9.82142 14.5794 9.5741C14.2391 9.40278 13.887 9.2257 13.6451 8.99381C13.4034 8.7617 13.2188 8.42412 13.0403 8.09736C12.7825 7.62576 12.5161 7.13804 12.0467 6.87783C11.5564 6.60587 10.9712 6.63028 10.4046 6.65377C10.0156 6.66989 9.64836 6.68532 9.3378 6.60587C9.01908 6.52436 8.70372 6.33277 8.37012 6.13013" stroke="#292A2E" stroke-width="1.5"/>
<path d="M10.9999 9.5C10.9999 9.77614 10.776 10 10.4999 10C10.2237 10 9.99988 9.77614 9.99988 9.5C9.99988 9.22386 10.2237 9 10.4999 9C10.776 9 10.9999 9.22386 10.9999 9.5Z" stroke="#292A2E" stroke-width="1.5"/>
<path d="M14.332 14.3248C14.332 14.6009 14.1081 14.8248 13.832 14.8248C13.5558 14.8248 13.332 14.6009 13.332 14.3248C13.332 14.0486 13.5558 13.8248 13.832 13.8248C14.1081 13.8248 14.332 14.0486 14.332 14.3248Z" stroke="#292A2E" stroke-width="1.5"/>
<path d="M11.2944 14.5983C11.2944 14.8745 11.0705 15.0983 10.7944 15.0983C10.5182 15.0983 10.2944 14.8745 10.2944 14.5983C10.2944 14.3222 10.5182 14.0983 10.7944 14.0983C11.0705 14.0983 11.2944 14.3222 11.2944 14.5983Z" stroke="#292A2E" stroke-width="1.5"/>
<path d="M7.36987 17.0854C7.36987 17.3615 7.14602 17.5854 6.86987 17.5854C6.59373 17.5854 6.36987 17.3615 6.36987 17.0854C6.36987 16.8092 6.59373 16.5854 6.86987 16.5854C7.14602 16.5854 7.36987 16.8092 7.36987 17.0854Z" stroke="#292A2E" stroke-width="1.5"/>
<path d="M8.36987 12.9752C8.36987 13.2514 8.14602 13.4752 7.86987 13.4752C7.59373 13.4752 7.36987 13.2514 7.36987 12.9752C7.36987 12.6991 7.59373 12.4752 7.86987 12.4752C8.14602 12.4752 8.36987 12.6991 8.36987 12.9752Z" stroke="#292A2E" stroke-width="1.5"/>
</svg>
