<svg width="148" height="64" viewBox="0 0 148 64" fill="none" xmlns="http://www.w3.org/2000/svg">
<g clip-path="url(#clip0_67_395)">
<path d="M9.10636 35.9727C10.3914 36.292 11.3382 37.3916 11.4635 38.7093L12.1794 46.2237L13.6284 47.0752C17.1624 49.0547 20.9574 50.0616 24.894 50.0616C28.8307 50.0616 32.6257 49.0538 36.1751 47.0666L37.613 46.173L38.3237 38.7093C38.449 37.3925 39.3967 36.2929 40.6809 35.9727C46.0888 34.6267 49.834 29.787 49.7868 24.2049C49.7353 18.2381 45.2218 13.1581 39.286 12.389C37.6773 12.1821 36.0481 12.3074 34.4729 12.7607C32.2042 9.7683 28.6693 8 24.8932 8C21.1171 8 17.5822 9.7683 15.3135 12.7607C13.7374 12.3083 12.109 12.1813 10.4995 12.389C4.56457 13.1581 0.051103 18.2381 0.000457424 24.2049C-0.047613 29.787 3.69759 34.6267 9.10636 35.9727ZM23.1764 46.628C23.1764 47.1027 22.7918 47.4864 22.318 47.4864C21.8442 47.4864 21.4596 47.1027 21.4596 46.628V39.7608C21.4596 39.2861 21.8442 38.9024 22.318 38.9024C22.7918 38.9024 23.1764 39.2861 23.1764 39.7608V46.628ZM28.3268 46.628C28.3268 47.1027 27.9422 47.4864 27.4684 47.4864C26.9946 47.4864 26.61 47.1027 26.61 46.628V39.7608C26.61 39.2861 26.9946 38.9024 27.4684 38.9024C27.9422 38.9024 28.3268 39.2861 28.3268 39.7608V46.628ZM32.6257 37.9375C32.684 37.4663 33.1175 37.1384 33.5836 37.1925C34.054 37.2508 34.388 37.68 34.3287 38.1504L33.4703 45.0176C33.4162 45.452 33.0463 45.7696 32.6196 45.7696C32.5836 45.7696 32.5484 45.767 32.5123 45.7627C32.0419 45.7043 31.708 45.2751 31.7673 44.8047L32.6257 37.9375ZM20.0767 13.3289C21.6605 12.1083 25.7035 10.5297 29.6771 13.3058C30.0659 13.5762 30.1603 14.1118 29.8891 14.5007C29.7225 14.7393 29.4556 14.8681 29.1843 14.8681C29.0144 14.8681 28.8435 14.8174 28.6933 14.7127C24.7498 11.9581 21.1609 14.6603 21.1257 14.6895C20.7506 14.9771 20.2115 14.9093 19.9213 14.5341C19.6321 14.1582 19.7016 13.6191 20.0767 13.3289ZM16.2028 37.1925C16.668 37.1384 17.1015 37.4663 17.1607 37.9375L18.0191 44.8047C18.0775 45.2751 17.7444 45.7043 17.274 45.7627C17.238 45.767 17.2019 45.7696 17.1667 45.7696C16.7401 45.7696 16.3701 45.452 16.3161 45.0176L15.4577 38.1504C15.3984 37.68 15.7323 37.2508 16.2028 37.1925ZM5.16974 22.4091C5.18262 22.3499 6.57752 16.5231 13.7426 16.584C14.2164 16.5891 14.5967 16.978 14.5915 17.4518C14.5864 17.9257 14.1829 18.269 13.7237 18.3008C7.88486 18.2021 6.85564 22.731 6.84534 22.7765C6.75778 23.1782 6.4024 23.4512 6.00754 23.4512C5.94659 23.4512 5.88479 23.4443 5.82298 23.4315C5.36202 23.3293 5.06845 22.8718 5.16974 22.4091Z" fill="#FF6F61"/>
<path d="M37.0465 48.544C33.2043 50.6968 29.1261 51.7784 24.8933 51.7784C20.6605 51.7784 16.5823 50.6969 12.7735 48.5637L12.3804 48.3328L12.595 50.5835C12.6877 51.557 13.389 52.4875 14.6792 53.3493C14.7882 53.4223 14.8981 53.4918 15.008 53.5596C15.22 53.6884 15.4234 53.8034 15.6088 53.9021C16.0741 54.1485 16.4089 54.2867 16.4089 54.2867C19.1094 55.4232 21.9644 56 24.8941 56C27.8239 56 30.6789 55.4232 33.3743 54.2884C33.3743 54.2884 33.7116 54.1502 34.1812 53.9013C34.364 53.8034 34.5683 53.6884 34.7829 53.5579C34.8902 53.4918 34.9992 53.4223 35.1082 53.3493C36.3984 52.4875 37.0997 51.557 37.1924 50.5835L37.4079 48.3208L37.0465 48.544Z" fill="#FF6F61"/>
<path d="M102.725 53.4062H96.6543V10.6328H102.725V53.4062ZM73.334 38.1719C78.1934 38.1719 82.0449 38.0938 84.8887 37.9375C87.7481 37.7656 90.5606 37.4219 93.3262 36.9062L93.8887 41.8984C91.0918 42.4297 88.2246 42.7891 85.2871 42.9766C82.3496 43.1484 78.3653 43.2344 73.334 43.2344H69.6309V38.1719H73.334ZM90.3731 19.3047H75.6543V40.1172H69.6309V14.4062H90.3731V19.3047ZM142.699 35.3125H136.652V10.6328H142.699V35.3125ZM115.535 30.9531H109.535V13.3047H115.535V30.9531ZM113.261 27.9766C116.839 27.9766 120.253 27.8438 123.503 27.5781C126.753 27.2969 129.996 26.8281 133.23 26.1719L133.933 31.0703C130.73 31.7578 127.464 32.2422 124.136 32.5234C120.824 32.8047 117.199 32.9453 113.261 32.9453H109.535V27.9766H113.261ZM128.168 35.9688C131.152 35.9688 133.753 36.3125 135.972 37C138.191 37.6875 139.894 38.6875 141.082 40C142.285 41.2969 142.886 42.8359 142.886 44.6172C142.886 46.4141 142.285 47.9609 141.082 49.2578C139.894 50.5703 138.191 51.5703 135.972 52.2578C133.753 52.9609 131.152 53.3125 128.168 53.3125C125.183 53.3125 122.582 52.9609 120.363 52.2578C118.144 51.5703 116.433 50.5703 115.23 49.2578C114.043 47.9609 113.449 46.4141 113.449 44.6172C113.449 42.8359 114.043 41.2969 115.23 40C116.433 38.6875 118.144 37.6875 120.363 37C122.582 36.3125 125.183 35.9688 128.168 35.9688ZM128.168 40.7969C126.277 40.7969 124.691 40.9375 123.41 41.2188C122.128 41.4844 121.16 41.9062 120.503 42.4844C119.847 43.0469 119.519 43.7578 119.519 44.6172C119.519 45.4766 119.847 46.1953 120.503 46.7734C121.175 47.3516 122.152 47.7891 123.433 48.0859C124.714 48.3672 126.293 48.5078 128.168 48.5078C130.058 48.5078 131.644 48.3672 132.925 48.0859C134.207 47.7891 135.175 47.3516 135.832 46.7734C136.503 46.1953 136.839 45.4766 136.839 44.6172C136.839 43.7578 136.511 43.0469 135.855 42.4844C135.199 41.9219 134.23 41.5 132.949 41.2188C131.668 40.9375 130.074 40.7969 128.168 40.7969Z" fill="#FF6F61"/>
</g>
<defs>
<clipPath id="clip0_67_395">
<rect width="148" height="64" fill="white"/>
</clipPath>
</defs>
</svg>
